<svg xmlns="http://www.w3.org/2000/svg" version="1.1" viewBox="113.75 8.75 470.75 542.5">
 <g>
  <path fill="#009c74" d="m577.5 157.5-141.75-141.75v141.75z"/>
  <path fill="#009c74" d="m421.75 185.5c-7 0-14-5.25-14-14v-162.75h-262.5c-17.5 0-31.5 14-31.5 31.5v479.5c0 17.5 14 31.5 31.5 31.5h407.75c17.5 0 31.5-14 31.5-31.5v-334.25zm-196-70h101.5c7 0 14 5.25 14 14 0 7-5.25 14-14 14h-101.5c-7 0-14-5.25-14-14 0-7 7-14 14-14zm0 75.25h101.5c7 0 14 5.25 14 14s-5.25 14-14 14h-101.5c-7 0-14-5.25-14-14s7-14 14-14zm248.5 253.75h-248.5c-7 0-14-5.25-14-14 0-7 5.25-14 14-14h248.5c7 0 14 5.25 14 14 0 7-7 14-14 14zm0-75.25h-248.5c-7 0-14-5.25-14-14 0-7 5.25-14 14-14h248.5c7 0 14 5.25 14 14 0 7-7 14-14 14zm0-75.25h-248.5c-7 0-14-5.25-14-14 0-7 5.25-14 14-14h248.5c7 0 14 5.25 14 14 0 7-7 14-14 14z"/>
 </g>
</svg>